<svg xmlns="http://www.w3.org/2000/svg" width="20" height="20"><path d="M20 8.755v2.49h-2.663a7.386 7.386 0 01-1.354 3.184l1.419 1.436-1.661 1.644-1.421-1.437a7.434 7.434 0 01-3.07 1.279V20h-2.5v-2.643a7.431 7.431 0 01-3.161-1.309L4.151 17.47l-1.643-1.662L3.931 14.4a7.369 7.369 0 01-1.33-3.156H0v-2.49h2.6a7.373 7.373 0 011.359-3.161L2.6 4.213l1.661-1.644 1.368 1.384a7.444 7.444 0 013.123-1.277V0h2.5v2.682a7.43 7.43 0 013.158 1.351l1.441-1.426 1.643 1.662-1.437 1.422a7.375 7.375 0 011.278 3.064H20zM10 5.1a4.981 4.981 0 105 4.981A4.991 4.991 0 0010 5.1zm0 8.755a3.774 3.774 0 113.789-3.774A3.781 3.781 0 0110 13.852zm0-6.245a2.471 2.471 0 102.481 2.471A2.476 2.476 0 0010 7.607z" fill="#a292b3" fill-rule="evenodd"/></svg>