<svg xmlns="http://www.w3.org/2000/svg" width="30" height="30"><path d="M15 0a15 15 0 1015 15A15.005 15.005 0 0015 0zm7.56 11.98c0 .16.01.32.01.49a10.749 10.749 0 01-16.55 9.05 6.6 6.6 0 00.9.05 7.582 7.582 0 004.69-1.61 3.792 3.792 0 01-3.53-2.63 3.353 3.353 0 00.71.07 4.089 4.089 0 001-.13 3.787 3.787 0 01-3.03-3.71v-.05a3.683 3.683 0 001.71.48 3.8 3.8 0 01-1.68-3.15 3.726 3.726 0 01.51-1.9 10.722 10.722 0 007.79 3.95 4.124 4.124 0 01-.1-.86 3.785 3.785 0 016.54-2.59 7.429 7.429 0 002.4-.92 3.727 3.727 0 01-1.66 2.09 7.406 7.406 0 002.17-.59 7.615 7.615 0 01-1.88 1.96z" fill="#82699d" fill-rule="evenodd"/></svg>